<svg width="183" height="39" viewBox="0 0 183 39" fill="none" xmlns="http://www.w3.org/2000/svg">
<path d="M21 39C20.4197 39 19.8394 38.8646 19.3558 38.5938C15.7385 36.6207 9.37439 34.5316 5.38957 34.0093L4.8286 33.9319C2.29457 33.6224 0.205444 31.2432 0.205444 28.6704V5.30319C0.205444 3.77503 0.805101 2.38228 1.9077 1.37641C3.01029 0.370531 4.44173 -0.113063 5.95054 0.0223433C10.2062 0.351187 16.6283 2.479 20.2649 4.76156L20.7292 5.03238C20.8646 5.10975 21.1547 5.10975 21.2708 5.05172L21.5803 4.85828C25.2169 2.57572 31.6391 0.409218 35.914 0.041687H36.1462C37.5582 -0.0937193 39.009 0.409219 40.0923 1.41509C41.1949 2.42097 41.7945 3.81372 41.7945 5.34188V28.6898C41.7945 31.2818 39.7054 33.6418 37.152 33.9513L36.5137 34.0287C32.5289 34.5509 26.1454 36.6594 22.6055 38.6131C22.1413 38.8839 21.5803 39 21 39ZM5.48629 2.90456C4.86729 2.90456 4.30632 3.11735 3.86142 3.52356C3.37782 3.96847 3.10701 4.60681 3.10701 5.30319V28.6704C3.10701 29.8117 4.09354 30.9143 5.19613 31.0691L5.77645 31.1464C10.1288 31.7267 16.8024 33.9126 20.6711 36.0211C20.8452 36.0984 21.0967 36.1178 21.1934 36.0791C25.0622 33.9319 31.7745 31.7267 36.1462 31.1464L36.8038 31.0691C37.9064 30.9337 38.893 29.8117 38.893 28.6704V5.32253C38.893 4.60681 38.6222 3.98781 38.1386 3.52356C37.6356 3.07866 36.9973 2.86588 36.2816 2.90456C36.2429 2.90456 36.0881 2.90456 36.0494 2.90456C32.3548 3.23341 26.3969 5.22581 23.1471 7.25691L22.8376 7.46969C21.7737 8.12738 20.2649 8.12738 19.2397 7.48903L18.7755 7.21822C15.4677 5.18713 9.50979 3.21406 5.71842 2.90456C5.64104 2.90456 5.56367 2.90456 5.48629 2.90456Z" fill="#00B37E"/>
<path d="M21 37.3751C20.2069 37.3751 19.5492 36.7174 19.5492 35.9243V6.90868C19.5492 6.11559 20.2069 5.4579 21 5.4579C21.7931 5.4579 22.4508 6.11559 22.4508 6.90868V35.9243C22.4508 36.7368 21.7931 37.3751 21 37.3751Z" fill="#00B37E"/>
<path d="M12.7788 14.1626H8.42649C7.6334 14.1626 6.97571 13.5049 6.97571 12.7118C6.97571 11.9187 7.6334 11.261 8.42649 11.261H12.7788C13.5719 11.261 14.2296 11.9187 14.2296 12.7118C14.2296 13.5049 13.5719 14.1626 12.7788 14.1626Z" fill="#00B37E"/>
<path d="M14.2296 19.9657H8.42649C7.6334 19.9657 6.97571 19.3081 6.97571 18.515C6.97571 17.7219 7.6334 17.0642 8.42649 17.0642H14.2296C15.0227 17.0642 15.6804 17.7219 15.6804 18.515C15.6804 19.3081 15.0227 19.9657 14.2296 19.9657Z" fill="#00B37E"/>
<path d="M62.0758 29H57.7418L57.7692 25.8008H62.0758C63.1513 25.8008 64.0582 25.5592 64.7965 25.0762C65.5348 24.584 66.0908 23.8685 66.4645 22.9297C66.8473 21.9909 67.0387 20.8561 67.0387 19.5254V18.5547C67.0387 17.5339 66.9293 16.6361 66.7106 15.8613C66.5009 15.0866 66.1865 14.4349 65.7672 13.9062C65.3479 13.3776 64.833 12.9811 64.2223 12.7168C63.6116 12.4434 62.9098 12.3066 62.1168 12.3066H57.6598V9.09375H62.1168C63.4476 9.09375 64.6643 9.32161 65.7672 9.77734C66.8792 10.224 67.8408 10.8665 68.652 11.7051C69.4632 12.5436 70.0875 13.5462 70.525 14.7129C70.9716 15.8704 71.1949 17.1602 71.1949 18.582V19.5254C71.1949 20.9382 70.9716 22.2279 70.525 23.3945C70.0875 24.5612 69.4632 25.5638 68.652 26.4023C67.8499 27.2318 66.8883 27.8743 65.7672 28.3301C64.6552 28.7767 63.4248 29 62.0758 29ZM60.066 9.09375V29H55.9645V9.09375H60.066ZM78.0856 14.207V29H74.1344V14.207H78.0856ZM73.8883 10.3516C73.8883 9.77734 74.0888 9.30339 74.4899 8.92969C74.8909 8.55599 75.4287 8.36914 76.1031 8.36914C76.7685 8.36914 77.3017 8.55599 77.7028 8.92969C78.1129 9.30339 78.318 9.77734 78.318 10.3516C78.318 10.9258 78.1129 11.3997 77.7028 11.7734C77.3017 12.1471 76.7685 12.334 76.1031 12.334C75.4287 12.334 74.8909 12.1471 74.4899 11.7734C74.0888 11.3997 73.8883 10.9258 73.8883 10.3516ZM87.4508 26.1973C87.9339 26.1973 88.3623 26.1061 88.736 25.9238C89.1097 25.7324 89.4013 25.4681 89.611 25.1309C89.8297 24.7845 89.9436 24.3789 89.9528 23.9141H93.6578C93.6487 24.9531 93.3707 25.8783 92.8239 26.6895C92.277 27.4915 91.5433 28.125 90.6227 28.5898C89.7021 29.0456 88.6722 29.2734 87.5328 29.2734C86.3844 29.2734 85.3818 29.082 84.525 28.6992C83.6774 28.3164 82.971 27.7878 82.4059 27.1133C81.8408 26.4297 81.417 25.6367 81.1344 24.7344C80.8518 23.8229 80.7106 22.8477 80.7106 21.8086V21.4121C80.7106 20.3639 80.8518 19.3887 81.1344 18.4863C81.417 17.5749 81.8408 16.7819 82.4059 16.1074C82.971 15.4238 83.6774 14.8906 84.525 14.5078C85.3727 14.125 86.3662 13.9336 87.5055 13.9336C88.7177 13.9336 89.7796 14.166 90.691 14.6309C91.6116 15.0957 92.3317 15.7611 92.8512 16.627C93.3798 17.4837 93.6487 18.5 93.6578 19.6758H89.9528C89.9436 19.1836 89.8388 18.737 89.6383 18.3359C89.4469 17.9349 89.1643 17.6159 88.7906 17.3789C88.4261 17.1328 87.9749 17.0098 87.4371 17.0098C86.8629 17.0098 86.3935 17.1328 86.0289 17.3789C85.6643 17.6159 85.3818 17.944 85.1813 18.3633C84.9808 18.7734 84.8395 19.2428 84.7574 19.7715C84.6845 20.291 84.6481 20.8379 84.6481 21.4121V21.8086C84.6481 22.3828 84.6845 22.9342 84.7574 23.4629C84.8304 23.9915 84.9671 24.4609 85.1676 24.8711C85.3772 25.2812 85.6643 25.6048 86.0289 25.8418C86.3935 26.0788 86.8675 26.1973 87.4508 26.1973ZM103.187 14.207V16.9961H94.5739V14.207H103.187ZM96.7067 10.5566H100.644V24.543C100.644 24.9714 100.699 25.2995 100.808 25.5273C100.927 25.7552 101.1 25.9147 101.328 26.0059C101.556 26.0879 101.843 26.1289 102.189 26.1289C102.435 26.1289 102.654 26.1198 102.845 26.1016C103.046 26.0742 103.214 26.0469 103.351 26.0195L103.365 28.918C103.028 29.0273 102.663 29.1139 102.271 29.1777C101.879 29.2415 101.446 29.2734 100.972 29.2734C100.106 29.2734 99.3499 29.1322 98.7028 28.8496C98.0647 28.5579 97.5726 28.0931 97.2262 27.4551C96.8798 26.8171 96.7067 25.9785 96.7067 24.9395V10.5566ZM109.586 14.207V29H105.634V14.207H109.586ZM105.388 10.3516C105.388 9.77734 105.589 9.30339 105.99 8.92969C106.391 8.55599 106.929 8.36914 107.603 8.36914C108.269 8.36914 108.802 8.55599 109.203 8.92969C109.613 9.30339 109.818 9.77734 109.818 10.3516C109.818 10.9258 109.613 11.3997 109.203 11.7734C108.802 12.1471 108.269 12.334 107.603 12.334C106.929 12.334 106.391 12.1471 105.99 11.7734C105.589 11.3997 105.388 10.9258 105.388 10.3516ZM112.211 21.7539V21.4668C112.211 20.3822 112.366 19.3841 112.675 18.4727C112.985 17.5521 113.436 16.7546 114.029 16.0801C114.621 15.4056 115.351 14.8815 116.216 14.5078C117.082 14.125 118.076 13.9336 119.197 13.9336C120.318 13.9336 121.316 14.125 122.191 14.5078C123.066 14.8815 123.8 15.4056 124.392 16.0801C124.994 16.7546 125.45 17.5521 125.759 18.4727C126.069 19.3841 126.224 20.3822 126.224 21.4668V21.7539C126.224 22.8294 126.069 23.8275 125.759 24.748C125.45 25.6595 124.994 26.457 124.392 27.1406C123.8 27.8151 123.071 28.3392 122.205 28.7129C121.339 29.0866 120.345 29.2734 119.224 29.2734C118.103 29.2734 117.105 29.0866 116.23 28.7129C115.364 28.3392 114.63 27.8151 114.029 27.1406C113.436 26.457 112.985 25.6595 112.675 24.748C112.366 23.8275 112.211 22.8294 112.211 21.7539ZM116.148 21.4668V21.7539C116.148 22.3737 116.203 22.9525 116.312 23.4902C116.422 24.028 116.595 24.502 116.832 24.9121C117.078 25.3132 117.397 25.6276 117.789 25.8555C118.181 26.0833 118.659 26.1973 119.224 26.1973C119.771 26.1973 120.241 26.0833 120.632 25.8555C121.024 25.6276 121.339 25.3132 121.576 24.9121C121.813 24.502 121.986 24.028 122.095 23.4902C122.214 22.9525 122.273 22.3737 122.273 21.7539V21.4668C122.273 20.8652 122.214 20.3001 122.095 19.7715C121.986 19.2337 121.808 18.7598 121.562 18.3496C121.325 17.9303 121.011 17.6022 120.619 17.3652C120.227 17.1283 119.753 17.0098 119.197 17.0098C118.641 17.0098 118.167 17.1283 117.775 17.3652C117.392 17.6022 117.078 17.9303 116.832 18.3496C116.595 18.7598 116.422 19.2337 116.312 19.7715C116.203 20.3001 116.148 20.8652 116.148 21.4668ZM132.5 17.3652V29H128.562V14.207H132.254L132.5 17.3652ZM131.925 21.084H130.859C130.859 19.9902 131 19.0059 131.283 18.1309C131.565 17.2467 131.962 16.4948 132.472 15.875C132.983 15.2461 133.589 14.7676 134.291 14.4395C135.002 14.1022 135.795 13.9336 136.67 13.9336C137.362 13.9336 137.996 14.0339 138.57 14.2344C139.144 14.4349 139.636 14.7539 140.047 15.1914C140.466 15.6289 140.785 16.2077 141.004 16.9277C141.231 17.6478 141.345 18.5273 141.345 19.5664V29H137.38V19.5527C137.38 18.8965 137.289 18.3861 137.107 18.0215C136.925 17.6569 136.656 17.4017 136.3 17.2559C135.954 17.1009 135.526 17.0234 135.015 17.0234C134.487 17.0234 134.026 17.1283 133.634 17.3379C133.252 17.5475 132.933 17.8392 132.677 18.2129C132.431 18.5775 132.244 19.0059 132.117 19.498C131.989 19.9902 131.925 20.5189 131.925 21.084ZM152.324 25.6641V19.0742C152.324 18.6003 152.246 18.1947 152.091 17.8574C151.936 17.5111 151.695 17.2422 151.367 17.0508C151.048 16.8594 150.633 16.7637 150.123 16.7637C149.685 16.7637 149.307 16.8411 148.988 16.9961C148.669 17.1419 148.423 17.3561 148.25 17.6387C148.076 17.9121 147.99 18.2357 147.99 18.6094H144.052C144.052 17.9805 144.198 17.3835 144.49 16.8184C144.782 16.2533 145.205 15.7565 145.761 15.3281C146.317 14.8906 146.978 14.5488 147.744 14.3027C148.519 14.0566 149.384 13.9336 150.341 13.9336C151.49 13.9336 152.511 14.125 153.404 14.5078C154.297 14.8906 154.999 15.4648 155.509 16.2305C156.029 16.9961 156.289 17.9531 156.289 19.1016V25.4316C156.289 26.2428 156.339 26.9082 156.439 27.4277C156.539 27.9382 156.685 28.3848 156.877 28.7676V29H152.898C152.707 28.599 152.561 28.0977 152.461 27.4961C152.369 26.8854 152.324 26.2747 152.324 25.6641ZM152.843 19.9902L152.871 22.2188H150.67C150.15 22.2188 149.699 22.278 149.316 22.3965C148.933 22.515 148.619 22.6836 148.373 22.9023C148.127 23.112 147.944 23.3581 147.826 23.6406C147.716 23.9232 147.662 24.2331 147.662 24.5703C147.662 24.9076 147.739 25.2129 147.894 25.4863C148.049 25.7507 148.272 25.9603 148.564 26.1152C148.856 26.2611 149.198 26.334 149.589 26.334C150.182 26.334 150.697 26.2155 151.134 25.9785C151.572 25.7415 151.909 25.4499 152.146 25.1035C152.392 24.7572 152.52 24.429 152.529 24.1191L153.568 25.7871C153.422 26.1608 153.222 26.5482 152.966 26.9492C152.72 27.3503 152.406 27.7285 152.023 28.084C151.64 28.4303 151.18 28.7174 150.642 28.9453C150.104 29.1641 149.466 29.2734 148.728 29.2734C147.789 29.2734 146.937 29.0866 146.172 28.7129C145.415 28.3301 144.813 27.806 144.367 27.1406C143.929 26.4661 143.711 25.7005 143.711 24.8438C143.711 24.069 143.856 23.3809 144.148 22.7793C144.44 22.1777 144.868 21.6719 145.433 21.2617C146.007 20.8424 146.723 20.528 147.58 20.3184C148.436 20.0996 149.43 19.9902 150.56 19.9902H152.843ZM163.261 17.4336V29H159.324V14.207H163.029L163.261 17.4336ZM167.718 14.1113L167.65 17.7617C167.459 17.7344 167.226 17.7116 166.953 17.6934C166.688 17.666 166.447 17.6523 166.228 17.6523C165.672 17.6523 165.189 17.7253 164.779 17.8711C164.378 18.0078 164.041 18.2129 163.767 18.4863C163.503 18.7598 163.302 19.0924 163.166 19.4844C163.038 19.8763 162.965 20.3229 162.947 20.8242L162.154 20.5781C162.154 19.6211 162.25 18.7415 162.441 17.9395C162.632 17.1283 162.91 16.4219 163.275 15.8203C163.649 15.2188 164.104 14.7539 164.642 14.4258C165.18 14.0977 165.795 13.9336 166.488 13.9336C166.707 13.9336 166.93 13.9518 167.158 13.9883C167.386 14.0156 167.573 14.0566 167.718 14.1113ZM174.213 27.332L178.136 14.207H182.361L176.414 31.2285C176.286 31.6022 176.113 32.0033 175.894 32.4316C175.685 32.86 175.397 33.2656 175.033 33.6484C174.677 34.0404 174.226 34.3594 173.679 34.6055C173.142 34.8516 172.481 34.9746 171.697 34.9746C171.323 34.9746 171.018 34.9518 170.781 34.9062C170.544 34.8607 170.261 34.7969 169.933 34.7148V31.8301C170.033 31.8301 170.138 31.8301 170.248 31.8301C170.357 31.8392 170.462 31.8438 170.562 31.8438C171.082 31.8438 171.505 31.7845 171.834 31.666C172.162 31.5475 172.426 31.3652 172.627 31.1191C172.827 30.8822 172.987 30.5723 173.105 30.1895L174.213 27.332ZM172.572 14.207L175.785 24.9258L176.345 29.0957L173.666 29.3828L168.347 14.207H172.572Z" fill="white"/>
</svg>
